<svg xmlns="http://www.w3.org/2000/svg" width="510" height="489" fill-rule="evenodd">
    <path fill="#fafafa"
          d="M118 92.098c-16.884 3.297-31.974 19.677-34.933 37.921-1.395 8.598-1.457 167.605-.068 175.095 2.697 14.545 13.7 28.661 27.759 35.613l7.631 3.773 31.305.314 31.306.315v32.435c0 22.132.336 32.436 1.057 32.436.582 0 15.77-14.617 33.75-32.482l32.693-32.483 66.114-.017 71.5-1.032c17.106-3.22 33.568-20.125 36.881-37.872.623-3.341 1.005-37.547 1.005-90.04 0-91.543.079-90.064-5.405-100.886-3.333-6.579-10.334-14.065-16.735-17.896-11.048-6.611-3.661-6.303-148.32-6.182L118 92.098m44 54.417c-19.066 4.676-38.35 20.192-46.979 37.802-6 12.242-7.48 18.985-7.502 34.183-.016 10.867.365 14.231 2.323 20.5 10.531 33.728 39.966 54.536 74.617 52.748 15.897-.82 29.808-6.219 44.098-17.115l6.943-5.293.266-28.186.265-28.185-28.265.265-28.266.266v31l6.5.109c5.167.087 6.566.445 6.823 1.747.476 2.416-3.803 3.644-12.692 3.644-9.386 0-15.815-2.764-21.977-9.449-7.08-7.681-8.627-11.717-8.641-22.551-.015-11.078 2.107-16.693 8.746-23.135 13.219-12.829 33.382-12.238 45.936 1.347l4.716 5.102 4.793-3.907c11.985-9.77 25.296-21.55 25.296-22.388 0-1.503-13.111-14.325-18.27-17.868-6.364-4.369-15.886-8.727-23.19-10.612-7.415-1.915-27.775-1.928-35.54-.024m98.667.152c-.833.833-.892 140.584-.06 142.751.524 1.365 3.189 1.582 19.441 1.582 10.921 0 19.083-.402 19.426-.958.325-.526.649-13.464.718-28.75l.547-34.406.42-6.614 6.673 7.114c3.67 3.913 18.09 19.84 32.045 35.394l25.373 28.28 12.125-.28 12.125-.28v-144h-42l-.5 33.889-.5 33.89-8.521-9.39L317.519 182l-22.352-24.75L284.753 146h-11.71c-6.44 0-12.01.3-12.376.667"/>
    <path fill="#283337"
          d="M124.435 46.031c-22.299 1.835-42.459 11.045-58.795 26.86C52.925 85.2 45.313 98.156 40.795 115.182c-2.184 8.227-2.212 9.287-2.561 96.818l.769 96.5c5.094 36.316 28.056 64.615 61.735 76.084 11.47 3.906 19.866 5.398 30.44 5.408l7.678.008.322 33.25c.303 31.325.444 33.514 2.428 37.801 4.787 10.347 13.29 16.286 23.304 16.278 11.021-.008 11.698-.552 57.09-45.841l41.5-41.406 64.5-.326c63.383-.321 64.639-.366 72.5-2.58 11.61-3.271 26.906-11.147 35.191-18.121 7.889-6.64 17.822-19.166 22.417-28.268 4.221-8.362 8.559-22.158 9.821-31.233 1.475-10.606 1.466-175.553-.011-186.232-2.977-21.534-17.364-45.549-35.77-59.706-6.672-5.133-19.441-11.731-27.156-14.034C389.756 45.035 388.598 45 257.5 45.147l-133.065.884M118 92.098c-16.884 3.297-31.974 19.677-34.933 37.921-1.395 8.598-1.457 167.605-.068 175.095 2.697 14.545 13.7 28.661 27.759 35.613l7.631 3.773 31.305.314 31.306.315v32.435c0 22.132.336 32.436 1.057 32.436.582 0 15.77-14.617 33.75-32.482l32.693-32.483 66.114-.017 71.5-1.032c17.106-3.22 33.568-20.125 36.881-37.872.623-3.341 1.005-37.547 1.005-90.04 0-91.543.079-90.064-5.405-100.886-3.333-6.579-10.334-14.065-16.735-17.896-11.048-6.611-3.661-6.303-148.32-6.182L118 92.098m44 54.417c-19.066 4.676-38.35 20.192-46.979 37.802-6 12.242-7.48 18.985-7.502 34.183-.016 10.867.365 14.231 2.323 20.5 10.531 33.728 39.966 54.536 74.617 52.748 15.897-.82 29.808-6.219 44.098-17.115l6.943-5.293.266-28.186.265-28.185-28.265.265-28.266.266v31l6.5.109c5.167.087 6.566.445 6.823 1.747.476 2.416-3.803 3.644-12.692 3.644-9.386 0-15.815-2.764-21.977-9.449-7.08-7.681-8.627-11.717-8.641-22.551-.015-11.078 2.107-16.693 8.746-23.135 13.219-12.829 33.382-12.238 45.936 1.347l4.716 5.102 4.793-3.907c11.985-9.77 25.296-21.55 25.296-22.388 0-1.503-13.111-14.325-18.27-17.868-6.364-4.369-15.886-8.727-23.19-10.612-7.415-1.915-27.775-1.928-35.54-.024m98.667.152c-.833.833-.892 140.584-.06 142.751.524 1.365 3.189 1.582 19.441 1.582 10.921 0 19.083-.402 19.426-.958.325-.526.649-13.464.718-28.75l.547-34.406.42-6.614 6.673 7.114c3.67 3.913 18.09 19.84 32.045 35.394l25.373 28.28 12.125-.28 12.125-.28v-144h-42l-.5 33.889-.5 33.89-8.521-9.39L317.519 182l-22.352-24.75L284.753 146h-11.71c-6.44 0-12.01.3-12.376.667"/>
</svg>
