<?xml version="1.0" standalone="no"?>
<!DOCTYPE svg PUBLIC "-//W3C//DTD SVG 20010904//EN"
 "http://www.w3.org/TR/2001/REC-SVG-20010904/DTD/svg10.dtd">
<svg version="1.0" xmlns="http://www.w3.org/2000/svg"
 width="510.000000pt" height="489.000000pt" viewBox="0 0 510.000000 489.000000"
 preserveAspectRatio="xMidYMid meet">
<metadata>
Created by potrace 1.16, written by Peter Selinger 2001-2019
</metadata>
<g transform="translate(0.000000,489.000000) scale(0.100000,-0.100000)"
fill="#000000" stroke="none">
<path d="M1420 4430 c-277 -7 -296 -10 -442 -63 -249 -90 -461 -305 -544 -549
-53 -156 -55 -195 -52 -1152 l4 -881 23 -85 c32 -116 79 -224 131 -300 164
-242 436 -394 732 -407 l116 -6 4 -331 3 -331 28 -57 c49 -99 126 -150 228
-149 112 0 115 3 567 456 l414 415 616 0 c562 0 625 2 707 19 385 79 668 390
724 795 7 50 11 373 11 930 0 706 -3 868 -15 938 -57 326 -299 613 -600 712
-147 48 -122 47 -1290 50 -605 1 -1219 -1 -1365 -4z m2561 -492 c97 -48 167
-121 217 -225 l37 -78 3 -880 c2 -611 -1 -895 -8 -932 -27 -126 -138 -276
-247 -332 -100 -50 -109 -51 -827 -51 l-670 0 -336 -333 -335 -332 -3 332 -2
332 -313 3 -313 3 -79 39 c-139 69 -243 199 -274 344 -14 69 -16 1695 -1 1773
14 78 72 188 128 245 56 56 135 103 207 120 38 10 363 12 1396 11 l1345 -2 75
-37z"/>
<path d="M1660 3433 c-52 -9 -128 -37 -205 -76 -117 -60 -246 -191 -302 -307
-62 -125 -76 -192 -77 -345 -1 -148 11 -199 74 -330 89 -184 264 -326 470
-382 89 -24 281 -24 370 1 95 26 199 78 290 147 l80 60 0 280 0 279 -282 -2
-283 -3 0 -155 0 -155 67 2 c50 2 67 -1 72 -12 18 -48 -156 -67 -247 -27 -69
31 -140 102 -172 173 -25 56 -27 70 -23 148 5 100 26 149 89 212 130 130 337
124 461 -13 l46 -51 54 44 c116 96 248 211 248 218 0 12 -123 133 -175 172
-63 48 -165 95 -248 114 -58 14 -244 19 -307 8z"/>
<path d="M2607 3423 c-4 -3 -7 -325 -7 -713 0 -590 2 -709 14 -719 9 -8 70
-11 197 -9 l184 3 3 353 c1 195 6 352 10 350 12 -5 145 -149 401 -436 l244
-273 121 3 121 3 0 720 0 720 -210 0 -210 0 -5 -339 -5 -339 -95 104 c-52 57
-129 142 -170 189 -41 47 -137 154 -213 238 l-139 152 -118 0 c-64 0 -120 -3
-123 -7z"/>
</g>
</svg>
